FFmpeg version SVN-r25716, Copyright (c) 2000-2010 the FFmpeg developers  built on Nov 10 2010 12:23:18 with gcc 4.1.2 20080704 (Red Hat 4.1.2-48)  configuration: --enable-libmp3lame --enable-shared --disable-mmx --arch=x86_64  libavutil     50.33. 0 / 50.33. 0  libavcore      0.12. 1 /  0.12. 1  libavcodec    52.94. 4 / 52.94. 4  libavformat   52.84. 0 / 52.84. 0  libavdevice   52. 2. 2 / 52. 2. 2  libavfilter    1.59. 0 /  1.59. 0  libswscale     0.12. 0 /  0.12. 0Seems stream 0 codec frame rate differs from container frame rate: 1200.00 (1200/1) -> 15.00 (15/1)Input #0, mov,mp4,m4a,3gp,3g2,mj2, from '/RAID10/data/converted_video_files/15798.mov':  Metadata:    major_brand     : qt      minor_version   : 537199360    compatible_brands: qt    Duration: 00:00:13.33, start: 0.000000, bitrate: 4136 kb/s    Stream #0.0(eng): Video: h264, yuv420p, 512x512, 4129 kb/s, PAR 1:1 DAR 1:1, 15 fps, 15 tbr, 600 tbn, 1200 tbc[buffer @ 0x182deda0] w:512 h:512 pixfmt:yuv420pOutput #0, flv, to '/RAID10/data/converted_video_files/15798.flv':  Metadata:    encoder         : Lavf52.84.0    Stream #0.0(eng): Video: flv, yuv420p, 512x512 [PAR 1:1 DAR 1:1], q=2-31, 600 kb/s, 1k tbn, 24 tbcStream mapping:  Stream #0.0 -> #0.0Press [q] to stop encodingframe=   27 fps=  0 q=16.7 size=     275kB time=1.75 bitrate=1289.4kbits/s    frame=   49 fps= 47 q=12.0 size=     359kB time=3.25 bitrate= 905.6kbits/s    frame=   72 fps= 46 q=13.2 size=     430kB time=4.75 bitrate= 741.4kbits/s    frame=  103 fps= 50 q=11.7 size=     557kB time=6.83 bitrate= 667.3kbits/s    frame=  136 fps= 53 q=10.4 size=     698kB time=9.04 bitrate= 632.8kbits/s    frame=  171 fps= 55 q=12.1 size=     859kB time=11.38 bitrate= 619.0kbits/s    frame=  200 fps= 56 q=12.9 Lsize=     991kB time=13.29 bitrate= 611.0kbits/s    video:988kB audio:0kB global headers:0kB muxing overhead 0.337043%